# xmcd
#
# Track frame offsets:
#	150
#	16686
#	33430
#	50117
#	64492
#	84114
#	103666
#	116930
#	139826
#	156229
#	171068
#	188060
#	207609
#
# Disc length: 2942 seconds
#
# Revision: 1
# Processed by: cddbd v1.5.1PL0 Copyright (c) Steve Scherf et al.
# Submitted via: audiograbber 1.83.01
#
DISCID=b70b7c0d
DTITLE=Luciano and Alexsander - Me Vejo em Seu Olhar
DYEAR=2004
DGENRE=Sertanejo
TTITLE0=Baby Te Amo
TTITLE1=Orgulho de Peão
TTITLE2=Sabor de Bombom
TTITLE3=Pra Lá de Bom
TTITLE4=Porque Chora a Tarde
TTITLE5=Tudo Bem
TTITLE6=Biquinho Dela
TTITLE7=Necessidade
TTITLE8=Tô na Arena
TTITLE9=Preste Atenção
TTITLE10=Reggae Sertanejo
TTITLE11=Me Vejo em Seu Olhar
TTITLE12=Realidade dos Casais
EXTD=
EXTT0=
EXTT1=
EXTT2=
EXTT3=
EXTT4=
EXTT5=
EXTT6=
EXTT7=
EXTT8=
EXTT9=
EXTT10=
EXTT11=
EXTT12=
PLAYORDER=
